<?xml version="1.0" encoding="UTF-8" standalone="no"?><svg xmlns="http://www.w3.org/2000/svg" xmlns:xlink="http://www.w3.org/1999/xlink" clip-rule="evenodd" stroke-miterlimit="4.00" viewBox="0 0 385 18"><desc>SVG generated by Keynote</desc><defs></defs><g transform="matrix(1.00, 0.00, -0.00, -1.00, 0.0, 18.0)"><text xml:space="preserve" font-family="Courier" font-size="22.1" fill="#000000" transform="matrix(1.00, 0.00, -0.00, -1.00, 0.0, 3.0)"> </text><text xml:space="preserve" font-family="Courier" font-size="22.1" fill="#000000" transform="matrix(1.00, 0.00, -0.00, -1.00, 13.3, 3.0)"> </text><text xml:space="preserve" font-family="Courier" font-size="22.1" fill="#000000" transform="matrix(1.00, 0.00, -0.00, -1.00, 26.5, 3.0)"> </text><text xml:space="preserve" font-family="Courier" font-size="22.1" fill="#000000" transform="matrix(1.00, 0.00, -0.00, -1.00, 39.8, 3.0)"> </text><text xml:space="preserve" font-family="Courier" font-size="22.1" fill="#000000" transform="matrix(1.00, 0.00, -0.00, -1.00, 53.1, 3.0)"> </text><text xml:space="preserve" font-family="Courier" font-size="22.1" fill="#000000" transform="matrix(1.00, 0.00, -0.00, -1.00, 66.3, 3.0)"> </text><text xml:space="preserve" font-family="Courier" font-size="22.1" fill="#000000" transform="matrix(1.00, 0.00, -0.00, -1.00, 79.6, 3.0)"> </text><text xml:space="preserve" font-family="Courier" font-size="22.1" fill="#000000" transform="matrix(1.00, 0.00, -0.00, -1.00, 92.9, 3.0)"> </text><text xml:space="preserve" font-family="Courier" font-size="22.1" fill="#000000" transform="matrix(1.00, 0.00, -0.00, -1.00, 106.1, 3.0)"> </text><text xml:space="preserve" font-family="Courier" font-size="22.1" fill="#000000" transform="matrix(1.00, 0.00, -0.00, -1.00, 119.4, 3.0)"> </text><text xml:space="preserve" font-family="Courier" font-size="22.1" fill="#000000" transform="matrix(1.00, 0.00, -0.00, -1.00, 132.6, 3.0)"> </text><text xml:space="preserve" font-family="Courier" font-size="22.1" fill="#000000" transform="matrix(1.00, 0.00, -0.00, -1.00, 145.9, 3.0)"> </text><text xml:space="preserve" font-family="Courier" font-size="22.1" fill="#F3F3F3" transform="matrix(1.00, 0.00, -0.00, -1.00, 159.1, 3.0)">+</text><text xml:space="preserve" font-family="Courier" font-size="22.1" fill="#000000" transform="matrix(1.00, 0.00, -0.00, -1.00, 172.4, 3.0)"> </text><text xml:space="preserve" font-family="Courier" font-size="22.1" fill="#F3F3F3" transform="matrix(1.00, 0.00, -0.00, -1.00, 185.7, 3.0)">S</text><text xml:space="preserve" font-family="Courier" font-size="22.1" fill="#F3F3F3" transform="matrix(1.00, 0.00, -0.00, -1.00, 198.9, 3.0)">P</text><text xml:space="preserve" font-family="Courier" font-size="22.1" fill="#F3F3F3" transform="matrix(1.00, 0.00, -0.00, -1.00, 212.2, 3.0)">A</text><text xml:space="preserve" font-family="Courier" font-size="22.1" fill="#F3F3F3" transform="matrix(1.00, 0.00, -0.00, -1.00, 225.5, 3.0)">C</text><text xml:space="preserve" font-family="Courier" font-size="22.1" fill="#F3F3F3" transform="matrix(1.00, 0.00, -0.00, -1.00, 238.7, 3.0)">E</text><text xml:space="preserve" font-family="Courier" font-size="22.1" fill="#000000" transform="matrix(1.00, 0.00, -0.00, -1.00, 252.0, 3.0)"> </text><text xml:space="preserve" font-family="Courier" font-size="22.1" fill="#F3F3F3" transform="matrix(1.00, 0.00, -0.00, -1.00, 265.2, 3.0)">+</text><text xml:space="preserve" font-family="Courier" font-size="22.1" fill="#000000" transform="matrix(1.00, 0.00, -0.00, -1.00, 278.5, 3.0)"> </text><text xml:space="preserve" font-family="Courier" font-size="22.1" fill="#F3F3F3" transform="matrix(1.00, 0.00, -0.00, -1.00, 291.8, 3.0)">H</text><text xml:space="preserve" font-family="Courier" font-size="22.1" fill="#F3F3F3" transform="matrix(1.00, 0.00, -0.00, -1.00, 305.0, 3.0)">A</text><text xml:space="preserve" font-family="Courier" font-size="22.1" fill="#F3F3F3" transform="matrix(1.00, 0.00, -0.00, -1.00, 318.3, 3.0)">S</text><text xml:space="preserve" font-family="Courier" font-size="22.1" fill="#F3F3F3" transform="matrix(1.00, 0.00, -0.00, -1.00, 331.6, 3.0)">H</text><text xml:space="preserve" font-family="Courier" font-size="22.1" fill="#F3F3F3" transform="matrix(1.00, 0.00, -0.00, -1.00, 344.8, 3.0)">T</text><text xml:space="preserve" font-family="Courier" font-size="22.1" fill="#F3F3F3" transform="matrix(1.00, 0.00, -0.00, -1.00, 358.1, 3.0)">A</text><text xml:space="preserve" font-family="Courier" font-size="22.1" fill="#F3F3F3" transform="matrix(1.00, 0.00, -0.00, -1.00, 371.4, 3.0)">G</text></g></svg>