<?xml version="1.0" encoding="UTF-8" standalone="no"?><svg xmlns="http://www.w3.org/2000/svg" xmlns:xlink="http://www.w3.org/1999/xlink" clip-rule="evenodd" stroke-miterlimit="4.00" viewBox="0 0 143 22"><desc>SVG generated by Keynote</desc><defs></defs><g transform="matrix(1.00, 0.00, -0.00, -1.00, 0.0, 22.0)"><text xml:space="preserve" font-family="Courier" font-size="22.1" fill="#000000" transform="matrix(1.00, 0.00, -0.00, -1.00, 0.0, 6.0)"> </text><text xml:space="preserve" font-family="Courier" font-size="22.1" fill="#000000" transform="matrix(1.00, 0.00, -0.00, -1.00, 13.3, 6.0)"> </text><text xml:space="preserve" font-family="Courier" font-size="22.1" fill="#000000" transform="matrix(1.00, 0.00, -0.00, -1.00, 26.5, 6.0)"> </text><text xml:space="preserve" font-family="Courier" font-size="22.1" fill="#000000" transform="matrix(1.00, 0.00, -0.00, -1.00, 39.8, 6.0)"> </text><text xml:space="preserve" font-family="Courier" font-size="22.1" fill="#F3F3F3" transform="matrix(1.00, 0.00, -0.00, -1.00, 53.0, 6.0)">}</text><text xml:space="preserve" font-family="Courier" font-size="22.1" fill="#F3F3F3" transform="matrix(1.00, 0.00, -0.00, -1.00, 66.3, 6.0)">,</text><text xml:space="preserve" font-family="Courier" font-size="22.1" fill="#000000" transform="matrix(1.00, 0.00, -0.00, -1.00, 79.6, 6.0)"> </text><text xml:space="preserve" font-family="Courier" font-size="22.1" fill="#F3F3F3" transform="matrix(1.00, 0.00, -0.00, -1.00, 92.8, 6.0)">c</text><text xml:space="preserve" font-family="Courier" font-size="22.1" fill="#F3F3F3" transform="matrix(1.00, 0.00, -0.00, -1.00, 106.1, 6.0)">b</text><text xml:space="preserve" font-family="Courier" font-size="22.1" fill="#F3F3F3" transform="matrix(1.00, 0.00, -0.00, -1.00, 119.4, 6.0)">)</text><text xml:space="preserve" font-family="Courier" font-size="22.1" fill="#F3F3F3" transform="matrix(1.00, 0.00, -0.00, -1.00, 132.6, 6.0)">;</text></g></svg>