<?xml version="1.0" encoding="UTF-8" standalone="no"?><svg xmlns="http://www.w3.org/2000/svg" xmlns:xlink="http://www.w3.org/1999/xlink" clip-rule="evenodd" stroke-miterlimit="4.00" viewBox="0 0 1024 768"><desc>SVG generated by Keynote</desc><defs></defs><g transform="matrix(1.00, 0.00, -0.00, -1.00, 0.0, 768.0)"><path d="M 0.0 768.0 L 1024.0 768.0 L 1024.0 0.0 L 0.0 0.0 Z M 0.0 768.0 " fill="#212121"></path><path d="M 0.0 0.0 L 960.0 0.0 " fill="none" stroke="#A6AAA8" stroke-width="3.00" transform="matrix(1.00, 0.00, 0.00, -1.00, 32.0, 284.5)"></path><text xml:space="preserve" font-family="DINCondensed-Bold" font-weight="bold" font-size="170.0" fill="#34A4DA" transform="matrix(1.00, 0.00, -0.00, -1.00, 36.0, 137.0)">W</text><text xml:space="preserve" font-family="DINCondensed-Bold" font-weight="bold" font-size="170.0" fill="#34A4DA" transform="matrix(1.00, 0.00, -0.00, -1.00, 136.8, 137.0)">E</text><text xml:space="preserve" font-family="DINCondensed-Bold" font-weight="bold" font-size="170.0" fill="#34A4DA" transform="matrix(1.00, 0.00, -0.00, -1.00, 199.7, 137.0)">B</text><text xml:space="preserve" font-family="DINCondensed-Bold" font-weight="bold" font-size="170.0" fill="#34A4DA" transform="matrix(1.00, 0.00, -0.00, -1.00, 272.1, 137.0)">T</text><text xml:space="preserve" font-family="DINCondensed-Bold" font-weight="bold" font-size="170.0" fill="#34A4DA" transform="matrix(1.00, 0.00, -0.00, -1.00, 319.2, 137.0)">A</text><text xml:space="preserve" font-family="DINCondensed-Bold" font-weight="bold" font-size="170.0" fill="#34A4DA" transform="matrix(1.00, 0.00, -0.00, -1.00, 388.4, 137.0)">S</text><text xml:space="preserve" font-family="DINCondensed-Bold" font-weight="bold" font-size="170.0" fill="#34A4DA" transform="matrix(1.00, 0.00, -0.00, -1.00, 457.4, 137.0)">K</text><text xml:space="preserve" font-family="DINCondensed-Bold" font-weight="bold" font-size="170.0" fill="#34A4DA" transform="matrix(1.00, 0.00, -0.00, -1.00, 529.8, 137.0)">.</text><text xml:space="preserve" font-family="DINCondensed-Bold" font-weight="bold" font-size="170.0" fill="#34A4DA" transform="matrix(1.00, 0.00, -0.00, -1.00, 561.5, 137.0)">I</text><text xml:space="preserve" font-family="DINCondensed-Bold" font-weight="bold" font-size="170.0" fill="#34A4DA" transform="matrix(1.00, 0.00, -0.00, -1.00, 596.1, 137.0)">O</text><g><clipPath id="clip-0"><path d="M 35.0 119.0 L 668.6 119.0 L 668.6 129.5 L 35.0 129.5 Z M 35.0 119.0 "></path></clipPath><g clip-path="url(#clip-0)"><path d="M 4.0 137.8 L 636.6 137.8 " fill="none" stroke="#34A4DA" stroke-width="8.50" stroke-miterlimit="0.00" transform="matrix(1.00, 0.00, 0.00, -1.00, 32.0, 262.0)"></path></g></g><text xml:space="preserve" font-family="DINAlternate-Bold" font-weight="bold" font-size="54.0" fill="#A6AAA9" transform="matrix(1.00, 0.00, -0.00, -1.00, 36.0, 306.0)">R</text><text xml:space="preserve" font-family="DINAlternate-Bold" font-weight="bold" font-size="54.0" fill="#A6AAA9" transform="matrix(1.00, 0.00, -0.00, -1.00, 68.9, 306.0)">U</text><text xml:space="preserve" font-family="DINAlternate-Bold" font-weight="bold" font-size="54.0" fill="#A6AAA9" transform="matrix(1.00, 0.00, -0.00, -1.00, 102.9, 306.0)">N</text><text xml:space="preserve" font-family="DINAlternate-Bold" font-weight="bold" font-size="54.0" fill="#A6AAA9" transform="matrix(1.00, 0.00, -0.00, -1.00, 139.9, 306.0)"> </text><text xml:space="preserve" font-family="DINAlternate-Bold" font-weight="bold" font-size="54.0" fill="#A6AAA9" transform="matrix(1.00, 0.00, -0.00, -1.00, 152.8, 306.0)">U</text><text xml:space="preserve" font-family="DINAlternate-Bold" font-weight="bold" font-size="54.0" fill="#A6AAA9" transform="matrix(1.00, 0.00, -0.00, -1.00, 186.8, 306.0)">N</text><text xml:space="preserve" font-family="DINAlternate-Bold" font-weight="bold" font-size="54.0" fill="#A6AAA9" transform="matrix(1.00, 0.00, -0.00, -1.00, 223.8, 306.0)">T</text><text xml:space="preserve" font-family="DINAlternate-Bold" font-weight="bold" font-size="54.0" fill="#A6AAA9" transform="matrix(1.00, 0.00, -0.00, -1.00, 250.8, 306.0)">R</text><text xml:space="preserve" font-family="DINAlternate-Bold" font-weight="bold" font-size="54.0" fill="#A6AAA9" transform="matrix(1.00, 0.00, -0.00, -1.00, 283.7, 306.0)">U</text><text xml:space="preserve" font-family="DINAlternate-Bold" font-weight="bold" font-size="54.0" fill="#A6AAA9" transform="matrix(1.00, 0.00, -0.00, -1.00, 317.7, 306.0)">S</text><text xml:space="preserve" font-family="DINAlternate-Bold" font-weight="bold" font-size="54.0" fill="#A6AAA9" transform="matrix(1.00, 0.00, -0.00, -1.00, 348.7, 306.0)">T</text><text xml:space="preserve" font-family="DINAlternate-Bold" font-weight="bold" font-size="54.0" fill="#A6AAA9" transform="matrix(1.00, 0.00, -0.00, -1.00, 375.7, 306.0)">E</text><text xml:space="preserve" font-family="DINAlternate-Bold" font-weight="bold" font-size="54.0" fill="#A6AAA9" transform="matrix(1.00, 0.00, -0.00, -1.00, 405.7, 306.0)">D</text><text xml:space="preserve" font-family="DINAlternate-Bold" font-weight="bold" font-size="54.0" fill="#A6AAA9" transform="matrix(1.00, 0.00, -0.00, -1.00, 439.7, 306.0)"> </text><text xml:space="preserve" font-family="DINAlternate-Bold" font-weight="bold" font-size="54.0" fill="#A6AAA9" transform="matrix(1.00, 0.00, -0.00, -1.00, 452.6, 306.0)">C</text><text xml:space="preserve" font-family="DINAlternate-Bold" font-weight="bold" font-size="54.0" fill="#A6AAA9" transform="matrix(1.00, 0.00, -0.00, -1.00, 482.7, 306.0)">O</text><text xml:space="preserve" font-family="DINAlternate-Bold" font-weight="bold" font-size="54.0" fill="#A6AAA9" transform="matrix(1.00, 0.00, -0.00, -1.00, 515.6, 306.0)">D</text><text xml:space="preserve" font-family="DINAlternate-Bold" font-weight="bold" font-size="54.0" fill="#A6AAA9" transform="matrix(1.00, 0.00, -0.00, -1.00, 549.6, 306.0)">E</text><text xml:space="preserve" font-family="DINAlternate-Bold" font-weight="bold" font-size="54.0" fill="#A6AAA9" transform="matrix(1.00, 0.00, -0.00, -1.00, 579.7, 306.0)"> </text><text xml:space="preserve" font-family="DINAlternate-Bold" font-weight="bold" font-size="54.0" fill="#A6AAA9" transform="matrix(1.00, 0.00, -0.00, -1.00, 592.6, 306.0)">I</text><text xml:space="preserve" font-family="DINAlternate-Bold" font-weight="bold" font-size="54.0" fill="#A6AAA9" transform="matrix(1.00, 0.00, -0.00, -1.00, 606.5, 306.0)">N</text><text xml:space="preserve" font-family="DINAlternate-Bold" font-weight="bold" font-size="54.0" fill="#A6AAA9" transform="matrix(1.00, 0.00, -0.00, -1.00, 643.5, 306.0)"> </text><text xml:space="preserve" font-family="DINAlternate-Bold" font-weight="bold" font-size="54.0" fill="#A6AAA9" transform="matrix(1.00, 0.00, -0.00, -1.00, 656.4, 306.0)">T</text><text xml:space="preserve" font-family="DINAlternate-Bold" font-weight="bold" font-size="54.0" fill="#A6AAA9" transform="matrix(1.00, 0.00, -0.00, -1.00, 683.4, 306.0)">H</text><text xml:space="preserve" font-family="DINAlternate-Bold" font-weight="bold" font-size="54.0" fill="#A6AAA9" transform="matrix(1.00, 0.00, -0.00, -1.00, 718.4, 306.0)">E</text><text xml:space="preserve" font-family="DINAlternate-Bold" font-weight="bold" font-size="54.0" fill="#A6AAA9" transform="matrix(1.00, 0.00, -0.00, -1.00, 748.4, 306.0)"> </text><text xml:space="preserve" font-family="DINAlternate-Bold" font-weight="bold" font-size="54.0" fill="#A6AAA9" transform="matrix(1.00, 0.00, -0.00, -1.00, 761.3, 306.0)">C</text><text xml:space="preserve" font-family="DINAlternate-Bold" font-weight="bold" font-size="54.0" fill="#A6AAA9" transform="matrix(1.00, 0.00, -0.00, -1.00, 791.4, 306.0)">L</text><text xml:space="preserve" font-family="DINAlternate-Bold" font-weight="bold" font-size="54.0" fill="#A6AAA9" transform="matrix(1.00, 0.00, -0.00, -1.00, 821.4, 306.0)">O</text><text xml:space="preserve" font-family="DINAlternate-Bold" font-weight="bold" font-size="54.0" fill="#A6AAA9" transform="matrix(1.00, 0.00, -0.00, -1.00, 854.4, 306.0)">U</text><text xml:space="preserve" font-family="DINAlternate-Bold" font-weight="bold" font-size="54.0" fill="#A6AAA9" transform="matrix(1.00, 0.00, -0.00, -1.00, 888.4, 306.0)">D</text></g></svg>