<?xml version="1.0" encoding="UTF-8" standalone="no"?><svg xmlns="http://www.w3.org/2000/svg" xmlns:xlink="http://www.w3.org/1999/xlink" clip-rule="evenodd" stroke-miterlimit="4.00" viewBox="0 0 1024 768"><desc>SVG generated by Keynote</desc><defs></defs><g transform="matrix(1.00, 0.00, -0.00, -1.00, 0.0, 768.0)"><path d="M 0.0 768.0 L 1024.0 768.0 L 1024.0 0.0 L 0.0 0.0 Z M 0.0 768.0 " fill="#212121"></path><path d="M 0.0 0.0 L 528.0 0.0 " fill="none" stroke="#A6AAA8" stroke-width="3.00" transform="matrix(1.00, 0.00, 0.00, -1.00, 464.0, 284.5)"></path><g opacity="0.66"><g><clipPath id="clip-4"><path d="M 0.0 768.0 L 432.0 768.0 L 432.0 0.0 L 0.0 0.0 Z M 0.0 768.0 "></path></clipPath><g clip-path="url(#clip-4)"><g><clipPath id="clip-5"><path d="M 0.0 0.0 L 433.0 0.0 L 433.0 768.0 L 0.0 768.0 Z M 0.0 0.0 "></path></clipPath><g clip-path="url(#clip-5)"><image xlink:href="../../50C9323B-B7B0-4C23-AE79-B55410D693BC/assets/2D3B3301E89D4910678A2FA9472D370D.png" width="639.00" height="540.00" transform="matrix(1.42, 0.00, -0.00, -1.42, -4.0, 768.0)"></image></g></g></g></g></g><text xml:space="preserve" font-family="DINCondensed-Bold" font-weight="bold" font-size="73.1" fill="#34A4DA" transform="matrix(1.00, 0.00, -0.00, -1.00, 468.0, 206.0)">Y</text><text xml:space="preserve" font-family="DINCondensed-Bold" font-weight="bold" font-size="73.1" fill="#34A4DA" transform="matrix(1.00, 0.00, -0.00, -1.00, 496.4, 206.0)">O</text><text xml:space="preserve" font-family="DINCondensed-Bold" font-weight="bold" font-size="73.1" fill="#34A4DA" transform="matrix(1.00, 0.00, -0.00, -1.00, 527.5, 206.0)">U</text><text xml:space="preserve" font-family="DINCondensed-Bold" font-weight="bold" font-size="73.1" fill="#34A4DA" transform="matrix(1.00, 0.00, -0.00, -1.00, 558.6, 206.0)"> </text><text xml:space="preserve" font-family="DINCondensed-Bold" font-weight="bold" font-size="73.1" fill="#34A4DA" transform="matrix(1.00, 0.00, -0.00, -1.00, 572.2, 206.0)">C</text><text xml:space="preserve" font-family="DINCondensed-Bold" font-weight="bold" font-size="73.1" fill="#34A4DA" transform="matrix(1.00, 0.00, -0.00, -1.00, 602.0, 206.0)">A</text><text xml:space="preserve" font-family="DINCondensed-Bold" font-weight="bold" font-size="73.1" fill="#34A4DA" transform="matrix(1.00, 0.00, -0.00, -1.00, 631.7, 206.0)">N</text><text xml:space="preserve" font-family="DINCondensed-Bold" font-weight="bold" font-size="73.1" fill="#34A4DA" transform="matrix(1.00, 0.00, -0.00, -1.00, 664.2, 206.0)"> </text><text xml:space="preserve" font-family="DINCondensed-Bold" font-weight="bold" font-size="73.1" fill="#34A4DA" transform="matrix(1.00, 0.00, -0.00, -1.00, 677.8, 206.0)">D</text><text xml:space="preserve" font-family="DINCondensed-Bold" font-weight="bold" font-size="73.1" fill="#34A4DA" transform="matrix(1.00, 0.00, -0.00, -1.00, 708.9, 206.0)">O</text><text xml:space="preserve" font-family="DINCondensed-Bold" font-weight="bold" font-size="73.1" fill="#34A4DA" transform="matrix(1.00, 0.00, -0.00, -1.00, 740.1, 206.0)"> </text><text xml:space="preserve" font-family="DINCondensed-Bold" font-weight="bold" font-size="73.1" fill="#34A4DA" transform="matrix(1.00, 0.00, -0.00, -1.00, 753.7, 206.0)">A</text><text xml:space="preserve" font-family="DINCondensed-Bold" font-weight="bold" font-size="73.1" fill="#34A4DA" transform="matrix(1.00, 0.00, -0.00, -1.00, 783.4, 206.0)">N</text><text xml:space="preserve" font-family="DINCondensed-Bold" font-weight="bold" font-size="73.1" fill="#34A4DA" transform="matrix(1.00, 0.00, -0.00, -1.00, 815.9, 206.0)">Y</text><text xml:space="preserve" font-family="DINCondensed-Bold" font-weight="bold" font-size="73.1" fill="#34A4DA" transform="matrix(1.00, 0.00, -0.00, -1.00, 844.2, 206.0)">T</text><text xml:space="preserve" font-family="DINCondensed-Bold" font-weight="bold" font-size="73.1" fill="#34A4DA" transform="matrix(1.00, 0.00, -0.00, -1.00, 868.5, 206.0)">H</text><text xml:space="preserve" font-family="DINCondensed-Bold" font-weight="bold" font-size="73.1" fill="#34A4DA" transform="matrix(1.00, 0.00, -0.00, -1.00, 899.7, 206.0)">I</text><text xml:space="preserve" font-family="DINCondensed-Bold" font-weight="bold" font-size="73.1" fill="#34A4DA" transform="matrix(1.00, 0.00, -0.00, -1.00, 914.6, 206.0)">N</text><text xml:space="preserve" font-family="DINCondensed-Bold" font-weight="bold" font-size="73.1" fill="#34A4DA" transform="matrix(1.00, 0.00, -0.00, -1.00, 947.0, 206.0)">G</text><text xml:space="preserve" font-family="DINCondensed-Bold" font-weight="bold" font-size="73.1" fill="#34A4DA" transform="matrix(1.00, 0.00, -0.00, -1.00, 978.2, 206.0)"> </text><text xml:space="preserve" font-family="DINCondensed-Bold" font-weight="bold" font-size="73.1" fill="#34A4DA" transform="matrix(1.00, 0.00, -0.00, -1.00, 468.0, 132.0)">Y</text><text xml:space="preserve" font-family="DINCondensed-Bold" font-weight="bold" font-size="73.1" fill="#34A4DA" transform="matrix(1.00, 0.00, -0.00, -1.00, 496.4, 132.0)">O</text><text xml:space="preserve" font-family="DINCondensed-Bold" font-weight="bold" font-size="73.1" fill="#34A4DA" transform="matrix(1.00, 0.00, -0.00, -1.00, 527.5, 132.0)">U</text><text xml:space="preserve" font-family="DINCondensed-Bold" font-weight="bold" font-size="73.1" fill="#34A4DA" transform="matrix(1.00, 0.00, -0.00, -1.00, 558.6, 132.0)">R</text><text xml:space="preserve" font-family="DINCondensed-Bold" font-weight="bold" font-size="73.1" fill="#34A4DA" transform="matrix(1.00, 0.00, -0.00, -1.00, 589.8, 132.0)"> </text><text xml:space="preserve" font-family="DINCondensed-Bold" font-weight="bold" font-size="73.1" fill="#34A4DA" transform="matrix(1.00, 0.00, -0.00, -1.00, 603.4, 132.0)">C</text><text xml:space="preserve" font-family="DINCondensed-Bold" font-weight="bold" font-size="73.1" fill="#34A4DA" transform="matrix(1.00, 0.00, -0.00, -1.00, 633.1, 132.0)">O</text><text xml:space="preserve" font-family="DINCondensed-Bold" font-weight="bold" font-size="73.1" fill="#34A4DA" transform="matrix(1.00, 0.00, -0.00, -1.00, 664.3, 132.0)">D</text><text xml:space="preserve" font-family="DINCondensed-Bold" font-weight="bold" font-size="73.1" fill="#34A4DA" transform="matrix(1.00, 0.00, -0.00, -1.00, 695.4, 132.0)">E</text><text xml:space="preserve" font-family="DINCondensed-Bold" font-weight="bold" font-size="73.1" fill="#34A4DA" transform="matrix(1.00, 0.00, -0.00, -1.00, 722.5, 132.0)"> </text><text xml:space="preserve" font-family="DINCondensed-Bold" font-weight="bold" font-size="73.1" fill="#34A4DA" transform="matrix(1.00, 0.00, -0.00, -1.00, 736.1, 132.0)">C</text><text xml:space="preserve" font-family="DINCondensed-Bold" font-weight="bold" font-size="73.1" fill="#34A4DA" transform="matrix(1.00, 0.00, -0.00, -1.00, 765.8, 132.0)">A</text><text xml:space="preserve" font-family="DINCondensed-Bold" font-weight="bold" font-size="73.1" fill="#34A4DA" transform="matrix(1.00, 0.00, -0.00, -1.00, 795.6, 132.0)">N</text><text xml:space="preserve" font-family="DINAlternate-Bold" font-weight="bold" font-size="54.0" fill="#A6AAA9" transform="matrix(1.00, 0.00, -0.00, -1.00, 468.0, 356.0)">W</text><text xml:space="preserve" font-family="DINAlternate-Bold" font-weight="bold" font-size="54.0" fill="#A6AAA9" transform="matrix(1.00, 0.00, -0.00, -1.00, 512.9, 356.0)">H</text><text xml:space="preserve" font-family="DINAlternate-Bold" font-weight="bold" font-size="54.0" fill="#A6AAA9" transform="matrix(1.00, 0.00, -0.00, -1.00, 547.9, 356.0)">Y</text><text xml:space="preserve" font-family="DINAlternate-Bold" font-weight="bold" font-size="54.0" fill="#A6AAA9" transform="matrix(1.00, 0.00, -0.00, -1.00, 574.9, 356.0)"> </text><text xml:space="preserve" font-family="DINAlternate-Bold" font-weight="bold" font-size="54.0" fill="#A6AAA9" transform="matrix(1.00, 0.00, -0.00, -1.00, 587.8, 356.0)">A</text><text xml:space="preserve" font-family="DINAlternate-Bold" font-weight="bold" font-size="54.0" fill="#A6AAA9" transform="matrix(1.00, 0.00, -0.00, -1.00, 620.8, 356.0)">R</text><text xml:space="preserve" font-family="DINAlternate-Bold" font-weight="bold" font-size="54.0" fill="#A6AAA9" transform="matrix(1.00, 0.00, -0.00, -1.00, 653.7, 356.0)">E</text><text xml:space="preserve" font-family="DINAlternate-Bold" font-weight="bold" font-size="54.0" fill="#A6AAA9" transform="matrix(1.00, 0.00, -0.00, -1.00, 683.7, 356.0)"> </text><text xml:space="preserve" font-family="DINAlternate-Bold" font-weight="bold" font-size="54.0" fill="#A6AAA9" transform="matrix(1.00, 0.00, -0.00, -1.00, 696.7, 356.0)">W</text><text xml:space="preserve" font-family="DINAlternate-Bold" font-weight="bold" font-size="54.0" fill="#A6AAA9" transform="matrix(1.00, 0.00, -0.00, -1.00, 741.6, 356.0)">E</text><text xml:space="preserve" font-family="DINAlternate-Bold" font-weight="bold" font-size="54.0" fill="#A6AAA9" transform="matrix(1.00, 0.00, -0.00, -1.00, 771.6, 356.0)">B</text><text xml:space="preserve" font-family="DINAlternate-Bold" font-weight="bold" font-size="54.0" fill="#A6AAA9" transform="matrix(1.00, 0.00, -0.00, -1.00, 804.6, 356.0)">H</text><text xml:space="preserve" font-family="DINAlternate-Bold" font-weight="bold" font-size="54.0" fill="#A6AAA9" transform="matrix(1.00, 0.00, -0.00, -1.00, 839.6, 356.0)">O</text><text xml:space="preserve" font-family="DINAlternate-Bold" font-weight="bold" font-size="54.0" fill="#A6AAA9" transform="matrix(1.00, 0.00, -0.00, -1.00, 872.5, 356.0)">O</text><text xml:space="preserve" font-family="DINAlternate-Bold" font-weight="bold" font-size="54.0" fill="#A6AAA9" transform="matrix(1.00, 0.00, -0.00, -1.00, 905.4, 356.0)">K</text><text xml:space="preserve" font-family="DINAlternate-Bold" font-weight="bold" font-size="54.0" fill="#A6AAA9" transform="matrix(1.00, 0.00, -0.00, -1.00, 939.4, 356.0)">S</text><text xml:space="preserve" font-family="DINAlternate-Bold" font-weight="bold" font-size="54.0" fill="#A6AAA9" transform="matrix(1.00, 0.00, -0.00, -1.00, 970.4, 356.0)"> </text><text xml:space="preserve" font-family="DINAlternate-Bold" font-weight="bold" font-size="54.0" fill="#A6AAA9" transform="matrix(1.00, 0.00, -0.00, -1.00, 468.0, 306.0)">S</text><text xml:space="preserve" font-family="DINAlternate-Bold" font-weight="bold" font-size="54.0" fill="#A6AAA9" transform="matrix(1.00, 0.00, -0.00, -1.00, 499.0, 306.0)">O</text><text xml:space="preserve" font-family="DINAlternate-Bold" font-weight="bold" font-size="54.0" fill="#A6AAA9" transform="matrix(1.00, 0.00, -0.00, -1.00, 531.9, 306.0)"> </text><text xml:space="preserve" font-family="DINAlternate-Bold" font-weight="bold" font-size="54.0" fill="#A6AAA9" transform="matrix(1.00, 0.00, -0.00, -1.00, 544.8, 306.0)">A</text><text xml:space="preserve" font-family="DINAlternate-Bold" font-weight="bold" font-size="54.0" fill="#A6AAA9" transform="matrix(1.00, 0.00, -0.00, -1.00, 575.7, 306.0)">W</text><text xml:space="preserve" font-family="DINAlternate-Bold" font-weight="bold" font-size="54.0" fill="#A6AAA9" transform="matrix(1.00, 0.00, -0.00, -1.00, 620.7, 306.0)">E</text><text xml:space="preserve" font-family="DINAlternate-Bold" font-weight="bold" font-size="54.0" fill="#A6AAA9" transform="matrix(1.00, 0.00, -0.00, -1.00, 650.7, 306.0)">S</text><text xml:space="preserve" font-family="DINAlternate-Bold" font-weight="bold" font-size="54.0" fill="#A6AAA9" transform="matrix(1.00, 0.00, -0.00, -1.00, 681.7, 306.0)">O</text><text xml:space="preserve" font-family="DINAlternate-Bold" font-weight="bold" font-size="54.0" fill="#A6AAA9" transform="matrix(1.00, 0.00, -0.00, -1.00, 714.6, 306.0)">M</text><text xml:space="preserve" font-family="DINAlternate-Bold" font-weight="bold" font-size="54.0" fill="#A6AAA9" transform="matrix(1.00, 0.00, -0.00, -1.00, 755.5, 306.0)">E</text><text xml:space="preserve" font-family="DINAlternate-Bold" font-weight="bold" font-size="54.0" fill="#A6AAA9" transform="matrix(1.00, 0.00, -0.00, -1.00, 785.6, 306.0)">?</text><text xml:space="preserve" font-family="AvenirNext-Medium" font-size="20.0" fill="#838686" transform="matrix(1.00, 0.00, -0.00, -1.00, 530.0, 10.0)">T</text><text xml:space="preserve" font-family="AvenirNext-Medium" font-size="20.0" fill="#838686" transform="matrix(1.00, 0.00, -0.00, -1.00, 541.0, 10.0)">h</text><text xml:space="preserve" font-family="AvenirNext-Medium" font-size="20.0" fill="#838686" transform="matrix(1.00, 0.00, -0.00, -1.00, 552.7, 10.0)">e</text><text xml:space="preserve" font-family="AvenirNext-Medium" font-size="20.0" fill="#838686" transform="matrix(1.00, 0.00, -0.00, -1.00, 564.2, 10.0)"> </text><text xml:space="preserve" font-family="AvenirNext-Medium" font-size="20.0" fill="#838686" transform="matrix(1.00, 0.00, -0.00, -1.00, 569.2, 10.0)">O</text><text xml:space="preserve" font-family="AvenirNext-Medium" font-size="20.0" fill="#838686" transform="matrix(1.00, 0.00, -0.00, -1.00, 586.1, 10.0)">a</text><text xml:space="preserve" font-family="AvenirNext-Medium" font-size="20.0" fill="#838686" transform="matrix(1.00, 0.00, -0.00, -1.00, 596.8, 10.0)">t</text><text xml:space="preserve" font-family="AvenirNext-Medium" font-size="20.0" fill="#838686" transform="matrix(1.00, 0.00, -0.00, -1.00, 603.4, 10.0)">m</text><text xml:space="preserve" font-family="AvenirNext-Medium" font-size="20.0" fill="#838686" transform="matrix(1.00, 0.00, -0.00, -1.00, 621.1, 10.0)">e</text><text xml:space="preserve" font-family="AvenirNext-Medium" font-size="20.0" fill="#838686" transform="matrix(1.00, 0.00, -0.00, -1.00, 632.4, 10.0)">a</text><text xml:space="preserve" font-family="AvenirNext-Medium" font-size="20.0" fill="#838686" transform="matrix(1.00, 0.00, -0.00, -1.00, 643.3, 10.0)">l</text><text xml:space="preserve" font-family="AvenirNext-Medium" font-size="20.0" fill="#838686" transform="matrix(1.00, 0.00, -0.00, -1.00, 648.5, 10.0)"> </text><text xml:space="preserve" font-family="AvenirNext-Medium" font-size="20.0" fill="#838686" transform="matrix(1.00, 0.00, -0.00, -1.00, 653.5, 10.0)">(</text><text xml:space="preserve" font-family="AvenirNext-Medium" font-size="20.0" fill="#34A4DA" transform="matrix(1.00, 0.00, -0.00, -1.00, 659.8, 10.0)">h</text><text xml:space="preserve" font-family="AvenirNext-Medium" font-size="20.0" fill="#34A4DA" transform="matrix(1.00, 0.00, -0.00, -1.00, 671.5, 10.0)">t</text><text xml:space="preserve" font-family="AvenirNext-Medium" font-size="20.0" fill="#34A4DA" transform="matrix(1.00, 0.00, -0.00, -1.00, 677.7, 10.0)">t</text><text xml:space="preserve" font-family="AvenirNext-Medium" font-size="20.0" fill="#34A4DA" transform="matrix(1.00, 0.00, -0.00, -1.00, 684.3, 10.0)">p</text><text xml:space="preserve" font-family="AvenirNext-Medium" font-size="20.0" fill="#34A4DA" transform="matrix(1.00, 0.00, -0.00, -1.00, 697.0, 10.0)">:</text><text xml:space="preserve" font-family="AvenirNext-Medium" font-size="20.0" fill="#34A4DA" transform="matrix(1.00, 0.00, -0.00, -1.00, 703.0, 10.0)">/</text><text xml:space="preserve" font-family="AvenirNext-Medium" font-size="20.0" fill="#34A4DA" transform="matrix(1.00, 0.00, -0.00, -1.00, 710.6, 10.0)">/</text><text xml:space="preserve" font-family="AvenirNext-Medium" font-size="20.0" fill="#34A4DA" transform="matrix(1.00, 0.00, -0.00, -1.00, 718.2, 10.0)">t</text><text xml:space="preserve" font-family="AvenirNext-Medium" font-size="20.0" fill="#34A4DA" transform="matrix(1.00, 0.00, -0.00, -1.00, 724.8, 10.0)">h</text><text xml:space="preserve" font-family="AvenirNext-Medium" font-size="20.0" fill="#34A4DA" transform="matrix(1.00, 0.00, -0.00, -1.00, 736.5, 10.0)">e</text><text xml:space="preserve" font-family="AvenirNext-Medium" font-size="20.0" fill="#34A4DA" transform="matrix(1.00, 0.00, -0.00, -1.00, 747.9, 10.0)">o</text><text xml:space="preserve" font-family="AvenirNext-Medium" font-size="20.0" fill="#34A4DA" transform="matrix(1.00, 0.00, -0.00, -1.00, 760.1, 10.0)">a</text><text xml:space="preserve" font-family="AvenirNext-Medium" font-size="20.0" fill="#34A4DA" transform="matrix(1.00, 0.00, -0.00, -1.00, 770.8, 10.0)">t</text><text xml:space="preserve" font-family="AvenirNext-Medium" font-size="20.0" fill="#34A4DA" transform="matrix(1.00, 0.00, -0.00, -1.00, 777.3, 10.0)">m</text><text xml:space="preserve" font-family="AvenirNext-Medium" font-size="20.0" fill="#34A4DA" transform="matrix(1.00, 0.00, -0.00, -1.00, 795.1, 10.0)">e</text><text xml:space="preserve" font-family="AvenirNext-Medium" font-size="20.0" fill="#34A4DA" transform="matrix(1.00, 0.00, -0.00, -1.00, 806.4, 10.0)">a</text><text xml:space="preserve" font-family="AvenirNext-Medium" font-size="20.0" fill="#34A4DA" transform="matrix(1.00, 0.00, -0.00, -1.00, 817.3, 10.0)">l</text><text xml:space="preserve" font-family="AvenirNext-Medium" font-size="20.0" fill="#34A4DA" transform="matrix(1.00, 0.00, -0.00, -1.00, 822.5, 10.0)">.</text><text xml:space="preserve" font-family="AvenirNext-Medium" font-size="20.0" fill="#34A4DA" transform="matrix(1.00, 0.00, -0.00, -1.00, 827.7, 10.0)">c</text><text xml:space="preserve" font-family="AvenirNext-Medium" font-size="20.0" fill="#34A4DA" transform="matrix(1.00, 0.00, -0.00, -1.00, 837.5, 10.0)">o</text><text xml:space="preserve" font-family="AvenirNext-Medium" font-size="20.0" fill="#34A4DA" transform="matrix(1.00, 0.00, -0.00, -1.00, 849.7, 10.0)">m</text><text xml:space="preserve" font-family="AvenirNext-Medium" font-size="20.0" fill="#838686" transform="matrix(1.00, 0.00, -0.00, -1.00, 867.5, 10.0)">)</text><g><clipPath id="clip-6"><path d="M 658.7 7.4 L 867.4 7.4 L 867.4 10.4 L 658.7 10.4 Z M 658.7 7.4 "></path></clipPath><g clip-path="url(#clip-6)"><path d="M 133.8 25.2 L 341.5 25.2 " fill="none" stroke="#34A4DA" stroke-width="1.00" stroke-miterlimit="0.00" transform="matrix(1.00, 0.00, 0.00, -1.00, 525.9, 34.1)"></path></g></g></g></svg>