<?xml version="1.0" encoding="UTF-8" standalone="no"?><svg xmlns="http://www.w3.org/2000/svg" xmlns:xlink="http://www.w3.org/1999/xlink" clip-rule="evenodd" stroke-miterlimit="4.00" viewBox="0 0 1024 768"><desc>SVG generated by Keynote</desc><defs></defs><g transform="matrix(1.00, 0.00, -0.00, -1.00, 0.0, 768.0)"><path d="M 0.0 768.0 L 1024.0 768.0 L 1024.0 0.0 L 0.0 0.0 Z M 0.0 768.0 " fill="#212121"></path><text xml:space="preserve" font-family="DINCondensed-Bold" font-weight="bold" font-size="166.6" fill="#34A4DA" transform="matrix(1.00, 0.00, -0.00, -1.00, 36.0, 327.0)">L</text><text xml:space="preserve" font-family="DINCondensed-Bold" font-weight="bold" font-size="166.6" fill="#34A4DA" transform="matrix(1.00, 0.00, -0.00, -1.00, 97.6, 327.0)">E</text><text xml:space="preserve" font-family="DINCondensed-Bold" font-weight="bold" font-size="166.6" fill="#34A4DA" transform="matrix(1.00, 0.00, -0.00, -1.00, 159.3, 327.0)">T</text><text xml:space="preserve" font-family="DINCondensed-Bold" font-weight="bold" font-size="166.6" fill="#34A4DA" transform="matrix(1.00, 0.00, -0.00, -1.00, 214.6, 327.0)"> </text><text xml:space="preserve" font-family="DINCondensed-Bold" font-weight="bold" font-size="166.6" fill="#34A4DA" transform="matrix(1.00, 0.00, -0.00, -1.00, 245.6, 327.0)">M</text><text xml:space="preserve" font-family="DINCondensed-Bold" font-weight="bold" font-size="166.6" fill="#34A4DA" transform="matrix(1.00, 0.00, -0.00, -1.00, 338.2, 327.0)">E</text><text xml:space="preserve" font-family="DINCondensed-Bold" font-weight="bold" font-size="166.6" fill="#34A4DA" transform="matrix(1.00, 0.00, -0.00, -1.00, 399.9, 327.0)"> </text><text xml:space="preserve" font-family="DINCondensed-Bold" font-weight="bold" font-size="166.6" fill="#34A4DA" transform="matrix(1.00, 0.00, -0.00, -1.00, 430.8, 327.0)">T</text><text xml:space="preserve" font-family="DINCondensed-Bold" font-weight="bold" font-size="166.6" fill="#34A4DA" transform="matrix(1.00, 0.00, -0.00, -1.00, 486.2, 327.0)">E</text><text xml:space="preserve" font-family="DINCondensed-Bold" font-weight="bold" font-size="166.6" fill="#34A4DA" transform="matrix(1.00, 0.00, -0.00, -1.00, 547.8, 327.0)">L</text><text xml:space="preserve" font-family="DINCondensed-Bold" font-weight="bold" font-size="166.6" fill="#34A4DA" transform="matrix(1.00, 0.00, -0.00, -1.00, 609.4, 327.0)">L</text><text xml:space="preserve" font-family="DINCondensed-Bold" font-weight="bold" font-size="166.6" fill="#34A4DA" transform="matrix(1.00, 0.00, -0.00, -1.00, 671.1, 327.0)"> </text><text xml:space="preserve" font-family="DINCondensed-Bold" font-weight="bold" font-size="166.6" fill="#34A4DA" transform="matrix(1.00, 0.00, -0.00, -1.00, 702.1, 327.0)">Y</text><text xml:space="preserve" font-family="DINCondensed-Bold" font-weight="bold" font-size="166.6" fill="#34A4DA" transform="matrix(1.00, 0.00, -0.00, -1.00, 766.7, 327.0)">O</text><text xml:space="preserve" font-family="DINCondensed-Bold" font-weight="bold" font-size="166.6" fill="#34A4DA" transform="matrix(1.00, 0.00, -0.00, -1.00, 837.7, 327.0)">U</text><text xml:space="preserve" font-family="DINCondensed-Bold" font-weight="bold" font-size="166.6" fill="#34A4DA" transform="matrix(1.00, 0.00, -0.00, -1.00, 908.7, 327.0)"> </text><text xml:space="preserve" font-family="DINCondensed-Bold" font-weight="bold" font-size="166.6" fill="#34A4DA" transform="matrix(1.00, 0.00, -0.00, -1.00, 36.0, 161.0)">A</text><text xml:space="preserve" font-family="DINCondensed-Bold" font-weight="bold" font-size="166.6" fill="#34A4DA" transform="matrix(1.00, 0.00, -0.00, -1.00, 103.8, 161.0)">B</text><text xml:space="preserve" font-family="DINCondensed-Bold" font-weight="bold" font-size="166.6" fill="#34A4DA" transform="matrix(1.00, 0.00, -0.00, -1.00, 174.8, 161.0)">O</text><text xml:space="preserve" font-family="DINCondensed-Bold" font-weight="bold" font-size="166.6" fill="#34A4DA" transform="matrix(1.00, 0.00, -0.00, -1.00, 245.7, 161.0)">U</text><text xml:space="preserve" font-family="DINCondensed-Bold" font-weight="bold" font-size="166.6" fill="#34A4DA" transform="matrix(1.00, 0.00, -0.00, -1.00, 316.7, 161.0)">T</text><text xml:space="preserve" font-family="DINCondensed-Bold" font-weight="bold" font-size="166.6" fill="#34A4DA" transform="matrix(1.00, 0.00, -0.00, -1.00, 372.0, 161.0)"> </text><text xml:space="preserve" font-family="DINCondensed-Bold" font-weight="bold" font-size="166.6" fill="#34A4DA" transform="matrix(1.00, 0.00, -0.00, -1.00, 403.0, 161.0)">W</text><text xml:space="preserve" font-family="DINCondensed-Bold" font-weight="bold" font-size="166.6" fill="#34A4DA" transform="matrix(1.00, 0.00, -0.00, -1.00, 501.8, 161.0)">E</text><text xml:space="preserve" font-family="DINCondensed-Bold" font-weight="bold" font-size="166.6" fill="#34A4DA" transform="matrix(1.00, 0.00, -0.00, -1.00, 563.5, 161.0)">B</text><text xml:space="preserve" font-family="DINCondensed-Bold" font-weight="bold" font-size="166.6" fill="#34A4DA" transform="matrix(1.00, 0.00, -0.00, -1.00, 634.4, 161.0)">H</text><text xml:space="preserve" font-family="DINCondensed-Bold" font-weight="bold" font-size="166.6" fill="#34A4DA" transform="matrix(1.00, 0.00, -0.00, -1.00, 705.4, 161.0)">O</text><text xml:space="preserve" font-family="DINCondensed-Bold" font-weight="bold" font-size="166.6" fill="#34A4DA" transform="matrix(1.00, 0.00, -0.00, -1.00, 776.4, 161.0)">O</text><text xml:space="preserve" font-family="DINCondensed-Bold" font-weight="bold" font-size="166.6" fill="#34A4DA" transform="matrix(1.00, 0.00, -0.00, -1.00, 847.3, 161.0)">K</text><text xml:space="preserve" font-family="DINCondensed-Bold" font-weight="bold" font-size="166.6" fill="#34A4DA" transform="matrix(1.00, 0.00, -0.00, -1.00, 918.3, 161.0)">S</text></g></svg>