<?xml version="1.0" encoding="UTF-8" standalone="no"?><svg xmlns="http://www.w3.org/2000/svg" xmlns:xlink="http://www.w3.org/1999/xlink" clip-rule="evenodd" stroke-miterlimit="4.00" viewBox="0 0 883 288"><desc>SVG generated by Keynote</desc><defs></defs><g transform="matrix(1.00, 0.00, -0.00, -1.00, 0.0, 288.0)"><path d="M 1.8 286.3 L 881.8 286.3 L 881.8 1.8 L 1.8 1.8 Z M 1.8 286.3 " fill="#000000"></path><g><clipPath id="clip-13"><path d="M -1.2 -3.8 L 888.1 -3.8 L 888.1 289.4 L -1.2 289.4 Z M -1.2 -3.8 "></path></clipPath><g clip-path="url(#clip-13)"><text xml:space="preserve" font-family="InconsolataForPowerline" font-size="28.0" fill="#CBCBCB" transform="matrix(1.00, 0.00, -0.00, -1.00, 6.0, 259.0)">#</text><text xml:space="preserve" font-family="InconsolataForPowerline" font-size="28.0" fill="#CBCBCB" transform="matrix(1.00, 0.00, -0.00, -1.00, 20.0, 259.0)"> </text><text xml:space="preserve" font-family="InconsolataForPowerline" font-size="28.0" fill="#CBCBCB" transform="matrix(1.00, 0.00, -0.00, -1.00, 34.0, 259.0)">T</text><text xml:space="preserve" font-family="InconsolataForPowerline" font-size="28.0" fill="#CBCBCB" transform="matrix(1.00, 0.00, -0.00, -1.00, 48.0, 259.0)">h</text><text xml:space="preserve" font-family="InconsolataForPowerline" font-size="28.0" fill="#CBCBCB" transform="matrix(1.00, 0.00, -0.00, -1.00, 62.0, 259.0)">i</text><text xml:space="preserve" font-family="InconsolataForPowerline" font-size="28.0" fill="#CBCBCB" transform="matrix(1.00, 0.00, -0.00, -1.00, 76.0, 259.0)">s</text><text xml:space="preserve" font-family="InconsolataForPowerline" font-size="28.0" fill="#CBCBCB" transform="matrix(1.00, 0.00, -0.00, -1.00, 90.0, 259.0)"> </text><text xml:space="preserve" font-family="InconsolataForPowerline" font-size="28.0" fill="#CBCBCB" transform="matrix(1.00, 0.00, -0.00, -1.00, 104.0, 259.0)">m</text><text xml:space="preserve" font-family="InconsolataForPowerline" font-size="28.0" fill="#CBCBCB" transform="matrix(1.00, 0.00, -0.00, -1.00, 118.0, 259.0)">u</text><text xml:space="preserve" font-family="InconsolataForPowerline" font-size="28.0" fill="#CBCBCB" transform="matrix(1.00, 0.00, -0.00, -1.00, 132.0, 259.0)">c</text><text xml:space="preserve" font-family="InconsolataForPowerline" font-size="28.0" fill="#CBCBCB" transform="matrix(1.00, 0.00, -0.00, -1.00, 146.0, 259.0)">h</text><text xml:space="preserve" font-family="InconsolataForPowerline" font-size="28.0" fill="#CBCBCB" transform="matrix(1.00, 0.00, -0.00, -1.00, 160.0, 259.0)"> </text><text xml:space="preserve" font-family="InconsolataForPowerline" font-size="28.0" fill="#CBCBCB" transform="matrix(1.00, 0.00, -0.00, -1.00, 174.0, 259.0)">i</text><text xml:space="preserve" font-family="InconsolataForPowerline" font-size="28.0" fill="#CBCBCB" transform="matrix(1.00, 0.00, -0.00, -1.00, 188.0, 259.0)">s</text><text xml:space="preserve" font-family="InconsolataForPowerline" font-size="28.0" fill="#CBCBCB" transform="matrix(1.00, 0.00, -0.00, -1.00, 202.0, 259.0)"> </text><text xml:space="preserve" font-family="InconsolataForPowerline" font-size="28.0" fill="#CBCBCB" transform="matrix(1.00, 0.00, -0.00, -1.00, 216.0, 259.0)">p</text><text xml:space="preserve" font-family="InconsolataForPowerline" font-size="28.0" fill="#CBCBCB" transform="matrix(1.00, 0.00, -0.00, -1.00, 230.0, 259.0)">r</text><text xml:space="preserve" font-family="InconsolataForPowerline" font-size="28.0" fill="#CBCBCB" transform="matrix(1.00, 0.00, -0.00, -1.00, 244.0, 259.0)">e</text><text xml:space="preserve" font-family="InconsolataForPowerline" font-size="28.0" fill="#CBCBCB" transform="matrix(1.00, 0.00, -0.00, -1.00, 258.0, 259.0)">t</text><text xml:space="preserve" font-family="InconsolataForPowerline" font-size="28.0" fill="#CBCBCB" transform="matrix(1.00, 0.00, -0.00, -1.00, 272.0, 259.0)">t</text><text xml:space="preserve" font-family="InconsolataForPowerline" font-size="28.0" fill="#CBCBCB" transform="matrix(1.00, 0.00, -0.00, -1.00, 286.0, 259.0)">y</text><text xml:space="preserve" font-family="InconsolataForPowerline" font-size="28.0" fill="#CBCBCB" transform="matrix(1.00, 0.00, -0.00, -1.00, 300.0, 259.0)"> </text><text xml:space="preserve" font-family="InconsolataForPowerline" font-size="28.0" fill="#CBCBCB" transform="matrix(1.00, 0.00, -0.00, -1.00, 314.0, 259.0)">u</text><text xml:space="preserve" font-family="InconsolataForPowerline" font-size="28.0" fill="#CBCBCB" transform="matrix(1.00, 0.00, -0.00, -1.00, 328.0, 259.0)">n</text><text xml:space="preserve" font-family="InconsolataForPowerline" font-size="28.0" fill="#CBCBCB" transform="matrix(1.00, 0.00, -0.00, -1.00, 342.0, 259.0)">a</text><text xml:space="preserve" font-family="InconsolataForPowerline" font-size="28.0" fill="#CBCBCB" transform="matrix(1.00, 0.00, -0.00, -1.00, 356.0, 259.0)">v</text><text xml:space="preserve" font-family="InconsolataForPowerline" font-size="28.0" fill="#CBCBCB" transform="matrix(1.00, 0.00, -0.00, -1.00, 370.0, 259.0)">o</text><text xml:space="preserve" font-family="InconsolataForPowerline" font-size="28.0" fill="#CBCBCB" transform="matrix(1.00, 0.00, -0.00, -1.00, 384.0, 259.0)">i</text><text xml:space="preserve" font-family="InconsolataForPowerline" font-size="28.0" fill="#CBCBCB" transform="matrix(1.00, 0.00, -0.00, -1.00, 398.0, 259.0)">d</text><text xml:space="preserve" font-family="InconsolataForPowerline" font-size="28.0" fill="#CBCBCB" transform="matrix(1.00, 0.00, -0.00, -1.00, 412.0, 259.0)">a</text><text xml:space="preserve" font-family="InconsolataForPowerline" font-size="28.0" fill="#CBCBCB" transform="matrix(1.00, 0.00, -0.00, -1.00, 426.0, 259.0)">b</text><text xml:space="preserve" font-family="InconsolataForPowerline" font-size="28.0" fill="#CBCBCB" transform="matrix(1.00, 0.00, -0.00, -1.00, 440.0, 259.0)">l</text><text xml:space="preserve" font-family="InconsolataForPowerline" font-size="28.0" fill="#CBCBCB" transform="matrix(1.00, 0.00, -0.00, -1.00, 454.0, 259.0)">e</text><text xml:space="preserve" font-family="InconsolataForPowerline" font-size="28.0" fill="#000000" transform="matrix(1.00, 0.00, -0.00, -1.00, 468.0, 259.0)"> </text><text xml:space="preserve" font-family="InconsolataForPowerline" font-size="28.0" fill="#F3F3F3" transform="matrix(1.00, 0.00, -0.00, -1.00, 6.0, 228.0)">$</text><text xml:space="preserve" font-family="InconsolataForPowerline" font-size="28.0" fill="#F3F3F3" transform="matrix(1.00, 0.00, -0.00, -1.00, 20.0, 228.0)"> </text><text xml:space="preserve" font-family="InconsolataForPowerline" font-size="28.0" fill="#F3F3F3" transform="matrix(1.00, 0.00, -0.00, -1.00, 34.0, 228.0)">g</text><text xml:space="preserve" font-family="InconsolataForPowerline" font-size="28.0" fill="#F3F3F3" transform="matrix(1.00, 0.00, -0.00, -1.00, 48.0, 228.0)">i</text><text xml:space="preserve" font-family="InconsolataForPowerline" font-size="28.0" fill="#F3F3F3" transform="matrix(1.00, 0.00, -0.00, -1.00, 62.0, 228.0)">t</text><text xml:space="preserve" font-family="InconsolataForPowerline" font-size="28.0" fill="#F3F3F3" transform="matrix(1.00, 0.00, -0.00, -1.00, 76.0, 228.0)"> </text><text xml:space="preserve" font-family="InconsolataForPowerline" font-size="28.0" fill="#F3F3F3" transform="matrix(1.00, 0.00, -0.00, -1.00, 90.0, 228.0)">a</text><text xml:space="preserve" font-family="InconsolataForPowerline" font-size="28.0" fill="#F3F3F3" transform="matrix(1.00, 0.00, -0.00, -1.00, 104.0, 228.0)">d</text><text xml:space="preserve" font-family="InconsolataForPowerline" font-size="28.0" fill="#F3F3F3" transform="matrix(1.00, 0.00, -0.00, -1.00, 118.0, 228.0)">d</text><text xml:space="preserve" font-family="InconsolataForPowerline" font-size="28.0" fill="#F3F3F3" transform="matrix(1.00, 0.00, -0.00, -1.00, 132.0, 228.0)"> </text><text xml:space="preserve" font-family="InconsolataForPowerline" font-size="28.0" fill="#F3F3F3" transform="matrix(1.00, 0.00, -0.00, -1.00, 146.0, 228.0)">p</text><text xml:space="preserve" font-family="InconsolataForPowerline" font-size="28.0" fill="#F3F3F3" transform="matrix(1.00, 0.00, -0.00, -1.00, 160.0, 228.0)">a</text><text xml:space="preserve" font-family="InconsolataForPowerline" font-size="28.0" fill="#F3F3F3" transform="matrix(1.00, 0.00, -0.00, -1.00, 174.0, 228.0)">c</text><text xml:space="preserve" font-family="InconsolataForPowerline" font-size="28.0" fill="#F3F3F3" transform="matrix(1.00, 0.00, -0.00, -1.00, 188.0, 228.0)">k</text><text xml:space="preserve" font-family="InconsolataForPowerline" font-size="28.0" fill="#F3F3F3" transform="matrix(1.00, 0.00, -0.00, -1.00, 202.0, 228.0)">a</text><text xml:space="preserve" font-family="InconsolataForPowerline" font-size="28.0" fill="#F3F3F3" transform="matrix(1.00, 0.00, -0.00, -1.00, 216.0, 228.0)">g</text><text xml:space="preserve" font-family="InconsolataForPowerline" font-size="28.0" fill="#F3F3F3" transform="matrix(1.00, 0.00, -0.00, -1.00, 230.0, 228.0)">e</text><text xml:space="preserve" font-family="InconsolataForPowerline" font-size="28.0" fill="#F3F3F3" transform="matrix(1.00, 0.00, -0.00, -1.00, 244.0, 228.0)">.</text><text xml:space="preserve" font-family="InconsolataForPowerline" font-size="28.0" fill="#F3F3F3" transform="matrix(1.00, 0.00, -0.00, -1.00, 258.0, 228.0)">j</text><text xml:space="preserve" font-family="InconsolataForPowerline" font-size="28.0" fill="#F3F3F3" transform="matrix(1.00, 0.00, -0.00, -1.00, 272.0, 228.0)">s</text><text xml:space="preserve" font-family="InconsolataForPowerline" font-size="28.0" fill="#F3F3F3" transform="matrix(1.00, 0.00, -0.00, -1.00, 286.0, 228.0)">o</text><text xml:space="preserve" font-family="InconsolataForPowerline" font-size="28.0" fill="#F3F3F3" transform="matrix(1.00, 0.00, -0.00, -1.00, 300.0, 228.0)">n</text><text xml:space="preserve" font-family="InconsolataForPowerline" font-size="28.0" fill="#F3F3F3" transform="matrix(1.00, 0.00, -0.00, -1.00, 314.0, 228.0)"> </text><text xml:space="preserve" font-family="InconsolataForPowerline" font-size="28.0" fill="#F3F3F3" transform="matrix(1.00, 0.00, -0.00, -1.00, 6.0, 197.0)">$</text><text xml:space="preserve" font-family="InconsolataForPowerline" font-size="28.0" fill="#F3F3F3" transform="matrix(1.00, 0.00, -0.00, -1.00, 20.0, 197.0)"> </text><text xml:space="preserve" font-family="InconsolataForPowerline" font-size="28.0" fill="#F3F3F3" transform="matrix(1.00, 0.00, -0.00, -1.00, 34.0, 197.0)">g</text><text xml:space="preserve" font-family="InconsolataForPowerline" font-size="28.0" fill="#F3F3F3" transform="matrix(1.00, 0.00, -0.00, -1.00, 48.0, 197.0)">i</text><text xml:space="preserve" font-family="InconsolataForPowerline" font-size="28.0" fill="#F3F3F3" transform="matrix(1.00, 0.00, -0.00, -1.00, 62.0, 197.0)">t</text><text xml:space="preserve" font-family="InconsolataForPowerline" font-size="28.0" fill="#F3F3F3" transform="matrix(1.00, 0.00, -0.00, -1.00, 76.0, 197.0)"> </text><text xml:space="preserve" font-family="InconsolataForPowerline" font-size="28.0" fill="#F3F3F3" transform="matrix(1.00, 0.00, -0.00, -1.00, 90.0, 197.0)">c</text><text xml:space="preserve" font-family="InconsolataForPowerline" font-size="28.0" fill="#F3F3F3" transform="matrix(1.00, 0.00, -0.00, -1.00, 104.0, 197.0)">o</text><text xml:space="preserve" font-family="InconsolataForPowerline" font-size="28.0" fill="#F3F3F3" transform="matrix(1.00, 0.00, -0.00, -1.00, 118.0, 197.0)">m</text><text xml:space="preserve" font-family="InconsolataForPowerline" font-size="28.0" fill="#F3F3F3" transform="matrix(1.00, 0.00, -0.00, -1.00, 132.0, 197.0)">m</text><text xml:space="preserve" font-family="InconsolataForPowerline" font-size="28.0" fill="#F3F3F3" transform="matrix(1.00, 0.00, -0.00, -1.00, 146.0, 197.0)">i</text><text xml:space="preserve" font-family="InconsolataForPowerline" font-size="28.0" fill="#F3F3F3" transform="matrix(1.00, 0.00, -0.00, -1.00, 160.0, 197.0)">t</text><text xml:space="preserve" font-family="InconsolataForPowerline" font-size="28.0" fill="#000000" transform="matrix(1.00, 0.00, -0.00, -1.00, 174.0, 197.0)"> </text><text xml:space="preserve" font-family="InconsolataForPowerline" font-size="28.0" fill="#F3F3F3" transform="matrix(1.00, 0.00, -0.00, -1.00, 188.0, 197.0)">-</text><text xml:space="preserve" font-family="InconsolataForPowerline" font-size="28.0" fill="#F3F3F3" transform="matrix(1.00, 0.00, -0.00, -1.00, 202.0, 197.0)">m</text><text xml:space="preserve" font-family="InconsolataForPowerline" font-size="28.0" fill="#000000" transform="matrix(1.00, 0.00, -0.00, -1.00, 216.0, 197.0)"> </text><text xml:space="preserve" font-family="InconsolataForPowerline" font-size="28.0" fill="#A1DCFF" transform="matrix(1.00, 0.00, -0.00, -1.00, 230.0, 197.0)">"</text><text xml:space="preserve" font-family="InconsolataForPowerline" font-size="28.0" fill="#A1DCFF" transform="matrix(1.00, 0.00, -0.00, -1.00, 244.0, 197.0)">v</text><text xml:space="preserve" font-family="InconsolataForPowerline" font-size="28.0" fill="#A1DCFF" transform="matrix(1.00, 0.00, -0.00, -1.00, 258.0, 197.0)">1</text><text xml:space="preserve" font-family="InconsolataForPowerline" font-size="28.0" fill="#A1DCFF" transform="matrix(1.00, 0.00, -0.00, -1.00, 272.0, 197.0)">.</text><text xml:space="preserve" font-family="InconsolataForPowerline" font-size="28.0" fill="#A1DCFF" transform="matrix(1.00, 0.00, -0.00, -1.00, 286.0, 197.0)">0</text><text xml:space="preserve" font-family="InconsolataForPowerline" font-size="28.0" fill="#A1DCFF" transform="matrix(1.00, 0.00, -0.00, -1.00, 300.0, 197.0)">.</text><text xml:space="preserve" font-family="InconsolataForPowerline" font-size="28.0" fill="#A1DCFF" transform="matrix(1.00, 0.00, -0.00, -1.00, 314.0, 197.0)">0</text><text xml:space="preserve" font-family="InconsolataForPowerline" font-size="28.0" fill="#A1DCFF" transform="matrix(1.00, 0.00, -0.00, -1.00, 328.0, 197.0)">"</text><text xml:space="preserve" font-family="InconsolataForPowerline" font-size="28.0" fill="#F3F3F3" transform="matrix(1.00, 0.00, -0.00, -1.00, 342.0, 197.0)"> </text><text xml:space="preserve" font-family="InconsolataForPowerline" font-size="28.0" fill="#F3F3F3" transform="matrix(1.00, 0.00, -0.00, -1.00, 6.0, 166.0)">$</text><text xml:space="preserve" font-family="InconsolataForPowerline" font-size="28.0" fill="#F3F3F3" transform="matrix(1.00, 0.00, -0.00, -1.00, 20.0, 166.0)"> </text><text xml:space="preserve" font-family="InconsolataForPowerline" font-size="28.0" fill="#F3F3F3" transform="matrix(1.00, 0.00, -0.00, -1.00, 34.0, 166.0)">g</text><text xml:space="preserve" font-family="InconsolataForPowerline" font-size="28.0" fill="#F3F3F3" transform="matrix(1.00, 0.00, -0.00, -1.00, 48.0, 166.0)">i</text><text xml:space="preserve" font-family="InconsolataForPowerline" font-size="28.0" fill="#F3F3F3" transform="matrix(1.00, 0.00, -0.00, -1.00, 62.0, 166.0)">t</text><text xml:space="preserve" font-family="InconsolataForPowerline" font-size="28.0" fill="#F3F3F3" transform="matrix(1.00, 0.00, -0.00, -1.00, 76.0, 166.0)"> </text><text xml:space="preserve" font-family="InconsolataForPowerline" font-size="28.0" fill="#F3F3F3" transform="matrix(1.00, 0.00, -0.00, -1.00, 90.0, 166.0)">p</text><text xml:space="preserve" font-family="InconsolataForPowerline" font-size="28.0" fill="#F3F3F3" transform="matrix(1.00, 0.00, -0.00, -1.00, 104.0, 166.0)">u</text><text xml:space="preserve" font-family="InconsolataForPowerline" font-size="28.0" fill="#F3F3F3" transform="matrix(1.00, 0.00, -0.00, -1.00, 118.0, 166.0)">s</text><text xml:space="preserve" font-family="InconsolataForPowerline" font-size="28.0" fill="#F3F3F3" transform="matrix(1.00, 0.00, -0.00, -1.00, 132.0, 166.0)">h</text><text xml:space="preserve" font-family="InconsolataForPowerline" font-size="28.0" fill="#F3F3F3" transform="matrix(1.00, 0.00, -0.00, -1.00, 146.0, 166.0)"> </text><text xml:space="preserve" font-family="InconsolataForPowerline" font-size="28.0" fill="#F3F3F3" transform="matrix(1.00, 0.00, -0.00, -1.00, 160.0, 166.0)">o</text><text xml:space="preserve" font-family="InconsolataForPowerline" font-size="28.0" fill="#F3F3F3" transform="matrix(1.00, 0.00, -0.00, -1.00, 174.0, 166.0)">r</text><text xml:space="preserve" font-family="InconsolataForPowerline" font-size="28.0" fill="#F3F3F3" transform="matrix(1.00, 0.00, -0.00, -1.00, 188.0, 166.0)">i</text><text xml:space="preserve" font-family="InconsolataForPowerline" font-size="28.0" fill="#F3F3F3" transform="matrix(1.00, 0.00, -0.00, -1.00, 202.0, 166.0)">g</text><text xml:space="preserve" font-family="InconsolataForPowerline" font-size="28.0" fill="#F3F3F3" transform="matrix(1.00, 0.00, -0.00, -1.00, 216.0, 166.0)">i</text><text xml:space="preserve" font-family="InconsolataForPowerline" font-size="28.0" fill="#F3F3F3" transform="matrix(1.00, 0.00, -0.00, -1.00, 230.0, 166.0)">n</text><text xml:space="preserve" font-family="InconsolataForPowerline" font-size="28.0" fill="#F3F3F3" transform="matrix(1.00, 0.00, -0.00, -1.00, 244.0, 166.0)"> </text><text xml:space="preserve" font-family="InconsolataForPowerline" font-size="28.0" fill="#F3F3F3" transform="matrix(1.00, 0.00, -0.00, -1.00, 258.0, 166.0)">m</text><text xml:space="preserve" font-family="InconsolataForPowerline" font-size="28.0" fill="#F3F3F3" transform="matrix(1.00, 0.00, -0.00, -1.00, 272.0, 166.0)">a</text><text xml:space="preserve" font-family="InconsolataForPowerline" font-size="28.0" fill="#F3F3F3" transform="matrix(1.00, 0.00, -0.00, -1.00, 286.0, 166.0)">s</text><text xml:space="preserve" font-family="InconsolataForPowerline" font-size="28.0" fill="#F3F3F3" transform="matrix(1.00, 0.00, -0.00, -1.00, 300.0, 166.0)">t</text><text xml:space="preserve" font-family="InconsolataForPowerline" font-size="28.0" fill="#F3F3F3" transform="matrix(1.00, 0.00, -0.00, -1.00, 314.0, 166.0)">e</text><text xml:space="preserve" font-family="InconsolataForPowerline" font-size="28.0" fill="#F3F3F3" transform="matrix(1.00, 0.00, -0.00, -1.00, 328.0, 166.0)">r</text><text xml:space="preserve" font-family="InconsolataForPowerline" font-size="28.0" fill="#000000" transform="matrix(1.00, 0.00, -0.00, -1.00, 342.0, 166.0)"> </text><text xml:space="preserve" font-family="InconsolataForPowerline" font-size="28.0" fill="#CBCBCB" transform="matrix(1.00, 0.00, -0.00, -1.00, 6.0, 104.0)">#</text><text xml:space="preserve" font-family="InconsolataForPowerline" font-size="28.0" fill="#CBCBCB" transform="matrix(1.00, 0.00, -0.00, -1.00, 20.0, 104.0)"> </text><text xml:space="preserve" font-family="InconsolataForPowerline" font-size="28.0" fill="#CBCBCB" transform="matrix(1.00, 0.00, -0.00, -1.00, 34.0, 104.0)">T</text><text xml:space="preserve" font-family="InconsolataForPowerline" font-size="28.0" fill="#CBCBCB" transform="matrix(1.00, 0.00, -0.00, -1.00, 48.0, 104.0)">h</text><text xml:space="preserve" font-family="InconsolataForPowerline" font-size="28.0" fill="#CBCBCB" transform="matrix(1.00, 0.00, -0.00, -1.00, 62.0, 104.0)">i</text><text xml:space="preserve" font-family="InconsolataForPowerline" font-size="28.0" fill="#CBCBCB" transform="matrix(1.00, 0.00, -0.00, -1.00, 76.0, 104.0)">s</text><text xml:space="preserve" font-family="InconsolataForPowerline" font-size="28.0" fill="#CBCBCB" transform="matrix(1.00, 0.00, -0.00, -1.00, 90.0, 104.0)"> </text><text xml:space="preserve" font-family="InconsolataForPowerline" font-size="28.0" fill="#CBCBCB" transform="matrix(1.00, 0.00, -0.00, -1.00, 104.0, 104.0)">i</text><text xml:space="preserve" font-family="InconsolataForPowerline" font-size="28.0" fill="#CBCBCB" transform="matrix(1.00, 0.00, -0.00, -1.00, 118.0, 104.0)">s</text><text xml:space="preserve" font-family="InconsolataForPowerline" font-size="28.0" fill="#CBCBCB" transform="matrix(1.00, 0.00, -0.00, -1.00, 132.0, 104.0)"> </text><text xml:space="preserve" font-family="InconsolataForPowerline" font-size="28.0" fill="#CBCBCB" transform="matrix(1.00, 0.00, -0.00, -1.00, 146.0, 104.0)">j</text><text xml:space="preserve" font-family="InconsolataForPowerline" font-size="28.0" fill="#CBCBCB" transform="matrix(1.00, 0.00, -0.00, -1.00, 160.0, 104.0)">u</text><text xml:space="preserve" font-family="InconsolataForPowerline" font-size="28.0" fill="#CBCBCB" transform="matrix(1.00, 0.00, -0.00, -1.00, 174.0, 104.0)">s</text><text xml:space="preserve" font-family="InconsolataForPowerline" font-size="28.0" fill="#CBCBCB" transform="matrix(1.00, 0.00, -0.00, -1.00, 188.0, 104.0)">t</text><text xml:space="preserve" font-family="InconsolataForPowerline" font-size="28.0" fill="#CBCBCB" transform="matrix(1.00, 0.00, -0.00, -1.00, 202.0, 104.0)"> </text><text xml:space="preserve" font-family="InconsolataForPowerline" font-size="28.0" fill="#CBCBCB" transform="matrix(1.00, 0.00, -0.00, -1.00, 216.0, 104.0)">r</text><text xml:space="preserve" font-family="InconsolataForPowerline" font-size="28.0" fill="#CBCBCB" transform="matrix(1.00, 0.00, -0.00, -1.00, 230.0, 104.0)">e</text><text xml:space="preserve" font-family="InconsolataForPowerline" font-size="28.0" fill="#CBCBCB" transform="matrix(1.00, 0.00, -0.00, -1.00, 244.0, 104.0)">d</text><text xml:space="preserve" font-family="InconsolataForPowerline" font-size="28.0" fill="#CBCBCB" transform="matrix(1.00, 0.00, -0.00, -1.00, 258.0, 104.0)">u</text><text xml:space="preserve" font-family="InconsolataForPowerline" font-size="28.0" fill="#CBCBCB" transform="matrix(1.00, 0.00, -0.00, -1.00, 272.0, 104.0)">n</text><text xml:space="preserve" font-family="InconsolataForPowerline" font-size="28.0" fill="#CBCBCB" transform="matrix(1.00, 0.00, -0.00, -1.00, 286.0, 104.0)">d</text><text xml:space="preserve" font-family="InconsolataForPowerline" font-size="28.0" fill="#CBCBCB" transform="matrix(1.00, 0.00, -0.00, -1.00, 300.0, 104.0)">a</text><text xml:space="preserve" font-family="InconsolataForPowerline" font-size="28.0" fill="#CBCBCB" transform="matrix(1.00, 0.00, -0.00, -1.00, 314.0, 104.0)">n</text><text xml:space="preserve" font-family="InconsolataForPowerline" font-size="28.0" fill="#CBCBCB" transform="matrix(1.00, 0.00, -0.00, -1.00, 328.0, 104.0)">t</text><text xml:space="preserve" font-family="InconsolataForPowerline" font-size="28.0" fill="#CBCBCB" transform="matrix(1.00, 0.00, -0.00, -1.00, 342.0, 104.0)"> </text><text xml:space="preserve" font-family="InconsolataForPowerline" font-size="28.0" fill="#CBCBCB" transform="matrix(1.00, 0.00, -0.00, -1.00, 356.0, 104.0)">a</text><text xml:space="preserve" font-family="InconsolataForPowerline" font-size="28.0" fill="#CBCBCB" transform="matrix(1.00, 0.00, -0.00, -1.00, 370.0, 104.0)">n</text><text xml:space="preserve" font-family="InconsolataForPowerline" font-size="28.0" fill="#CBCBCB" transform="matrix(1.00, 0.00, -0.00, -1.00, 384.0, 104.0)">d</text><text xml:space="preserve" font-family="InconsolataForPowerline" font-size="28.0" fill="#CBCBCB" transform="matrix(1.00, 0.00, -0.00, -1.00, 398.0, 104.0)"> </text><text xml:space="preserve" font-family="InconsolataForPowerline" font-size="28.0" fill="#CBCBCB" transform="matrix(1.00, 0.00, -0.00, -1.00, 412.0, 104.0)">g</text><text xml:space="preserve" font-family="InconsolataForPowerline" font-size="28.0" fill="#CBCBCB" transform="matrix(1.00, 0.00, -0.00, -1.00, 426.0, 104.0)">i</text><text xml:space="preserve" font-family="InconsolataForPowerline" font-size="28.0" fill="#CBCBCB" transform="matrix(1.00, 0.00, -0.00, -1.00, 440.0, 104.0)">v</text><text xml:space="preserve" font-family="InconsolataForPowerline" font-size="28.0" fill="#CBCBCB" transform="matrix(1.00, 0.00, -0.00, -1.00, 454.0, 104.0)">e</text><text xml:space="preserve" font-family="InconsolataForPowerline" font-size="28.0" fill="#CBCBCB" transform="matrix(1.00, 0.00, -0.00, -1.00, 468.0, 104.0)">s</text><text xml:space="preserve" font-family="InconsolataForPowerline" font-size="28.0" fill="#CBCBCB" transform="matrix(1.00, 0.00, -0.00, -1.00, 482.0, 104.0)"> </text><text xml:space="preserve" font-family="InconsolataForPowerline" font-size="28.0" fill="#CBCBCB" transform="matrix(1.00, 0.00, -0.00, -1.00, 496.0, 104.0)">y</text><text xml:space="preserve" font-family="InconsolataForPowerline" font-size="28.0" fill="#CBCBCB" transform="matrix(1.00, 0.00, -0.00, -1.00, 510.0, 104.0)">o</text><text xml:space="preserve" font-family="InconsolataForPowerline" font-size="28.0" fill="#CBCBCB" transform="matrix(1.00, 0.00, -0.00, -1.00, 524.0, 104.0)">u</text><text xml:space="preserve" font-family="InconsolataForPowerline" font-size="28.0" fill="#CBCBCB" transform="matrix(1.00, 0.00, -0.00, -1.00, 538.0, 104.0)"> </text><text xml:space="preserve" font-family="InconsolataForPowerline" font-size="28.0" fill="#CBCBCB" transform="matrix(1.00, 0.00, -0.00, -1.00, 552.0, 104.0)">a</text><text xml:space="preserve" font-family="InconsolataForPowerline" font-size="28.0" fill="#CBCBCB" transform="matrix(1.00, 0.00, -0.00, -1.00, 566.0, 104.0)"> </text><text xml:space="preserve" font-family="InconsolataForPowerline" font-size="28.0" fill="#CBCBCB" transform="matrix(1.00, 0.00, -0.00, -1.00, 580.0, 104.0)">c</text><text xml:space="preserve" font-family="InconsolataForPowerline" font-size="28.0" fill="#CBCBCB" transform="matrix(1.00, 0.00, -0.00, -1.00, 594.0, 104.0)">h</text><text xml:space="preserve" font-family="InconsolataForPowerline" font-size="28.0" fill="#CBCBCB" transform="matrix(1.00, 0.00, -0.00, -1.00, 608.0, 104.0)">a</text><text xml:space="preserve" font-family="InconsolataForPowerline" font-size="28.0" fill="#CBCBCB" transform="matrix(1.00, 0.00, -0.00, -1.00, 622.0, 104.0)">n</text><text xml:space="preserve" font-family="InconsolataForPowerline" font-size="28.0" fill="#CBCBCB" transform="matrix(1.00, 0.00, -0.00, -1.00, 636.0, 104.0)">c</text><text xml:space="preserve" font-family="InconsolataForPowerline" font-size="28.0" fill="#CBCBCB" transform="matrix(1.00, 0.00, -0.00, -1.00, 650.0, 104.0)">e</text><text xml:space="preserve" font-family="InconsolataForPowerline" font-size="28.0" fill="#CBCBCB" transform="matrix(1.00, 0.00, -0.00, -1.00, 664.0, 104.0)"> </text><text xml:space="preserve" font-family="InconsolataForPowerline" font-size="28.0" fill="#CBCBCB" transform="matrix(1.00, 0.00, -0.00, -1.00, 678.0, 104.0)">t</text><text xml:space="preserve" font-family="InconsolataForPowerline" font-size="28.0" fill="#CBCBCB" transform="matrix(1.00, 0.00, -0.00, -1.00, 692.0, 104.0)">o</text><text xml:space="preserve" font-family="InconsolataForPowerline" font-size="28.0" fill="#CBCBCB" transform="matrix(1.00, 0.00, -0.00, -1.00, 706.0, 104.0)"> </text><text xml:space="preserve" font-family="InconsolataForPowerline" font-size="28.0" fill="#CBCBCB" transform="matrix(1.00, 0.00, -0.00, -1.00, 720.0, 104.0)">m</text><text xml:space="preserve" font-family="InconsolataForPowerline" font-size="28.0" fill="#CBCBCB" transform="matrix(1.00, 0.00, -0.00, -1.00, 734.0, 104.0)">a</text><text xml:space="preserve" font-family="InconsolataForPowerline" font-size="28.0" fill="#CBCBCB" transform="matrix(1.00, 0.00, -0.00, -1.00, 748.0, 104.0)">k</text><text xml:space="preserve" font-family="InconsolataForPowerline" font-size="28.0" fill="#CBCBCB" transform="matrix(1.00, 0.00, -0.00, -1.00, 762.0, 104.0)">e</text><text xml:space="preserve" font-family="InconsolataForPowerline" font-size="28.0" fill="#CBCBCB" transform="matrix(1.00, 0.00, -0.00, -1.00, 776.0, 104.0)"> </text><text xml:space="preserve" font-family="InconsolataForPowerline" font-size="28.0" fill="#CBCBCB" transform="matrix(1.00, 0.00, -0.00, -1.00, 790.0, 104.0)">a</text><text xml:space="preserve" font-family="InconsolataForPowerline" font-size="28.0" fill="#CBCBCB" transform="matrix(1.00, 0.00, -0.00, -1.00, 804.0, 104.0)"> </text><text xml:space="preserve" font-family="InconsolataForPowerline" font-size="28.0" fill="#CBCBCB" transform="matrix(1.00, 0.00, -0.00, -1.00, 818.0, 104.0)">t</text><text xml:space="preserve" font-family="InconsolataForPowerline" font-size="28.0" fill="#CBCBCB" transform="matrix(1.00, 0.00, -0.00, -1.00, 832.0, 104.0)">y</text><text xml:space="preserve" font-family="InconsolataForPowerline" font-size="28.0" fill="#CBCBCB" transform="matrix(1.00, 0.00, -0.00, -1.00, 846.0, 104.0)">p</text><text xml:space="preserve" font-family="InconsolataForPowerline" font-size="28.0" fill="#CBCBCB" transform="matrix(1.00, 0.00, -0.00, -1.00, 860.0, 104.0)">o</text><text xml:space="preserve" font-family="InconsolataForPowerline" font-size="28.0" fill="#000000" transform="matrix(1.00, 0.00, -0.00, -1.00, 874.0, 104.0)"> </text><text xml:space="preserve" font-family="InconsolataForPowerline" font-size="28.0" fill="#CBCBCB" transform="matrix(1.00, 0.00, -0.00, -1.00, 6.0, 73.0)">#</text><text xml:space="preserve" font-family="InconsolataForPowerline" font-size="28.0" fill="#CBCBCB" transform="matrix(1.00, 0.00, -0.00, -1.00, 20.0, 73.0)"> </text><text xml:space="preserve" font-family="InconsolataForPowerline" font-size="28.0" fill="#CBCBCB" transform="matrix(1.00, 0.00, -0.00, -1.00, 34.0, 73.0)">I</text><text xml:space="preserve" font-family="InconsolataForPowerline" font-size="28.0" fill="#CBCBCB" transform="matrix(1.00, 0.00, -0.00, -1.00, 48.0, 73.0)">t</text><text xml:space="preserve" font-family="InconsolataForPowerline" font-size="28.0" fill="#CBCBCB" transform="matrix(1.00, 0.00, -0.00, -1.00, 62.0, 73.0)"> </text><text xml:space="preserve" font-family="InconsolataForPowerline" font-size="28.0" fill="#CBCBCB" transform="matrix(1.00, 0.00, -0.00, -1.00, 76.0, 73.0)">i</text><text xml:space="preserve" font-family="InconsolataForPowerline" font-size="28.0" fill="#CBCBCB" transform="matrix(1.00, 0.00, -0.00, -1.00, 90.0, 73.0)">s</text><text xml:space="preserve" font-family="InconsolataForPowerline" font-size="28.0" fill="#CBCBCB" transform="matrix(1.00, 0.00, -0.00, -1.00, 104.0, 73.0)"> </text><text xml:space="preserve" font-family="InconsolataForPowerline" font-size="28.0" fill="#CBCBCB" transform="matrix(1.00, 0.00, -0.00, -1.00, 118.0, 73.0)">a</text><text xml:space="preserve" font-family="InconsolataForPowerline" font-size="28.0" fill="#CBCBCB" transform="matrix(1.00, 0.00, -0.00, -1.00, 132.0, 73.0)">l</text><text xml:space="preserve" font-family="InconsolataForPowerline" font-size="28.0" fill="#CBCBCB" transform="matrix(1.00, 0.00, -0.00, -1.00, 146.0, 73.0)">s</text><text xml:space="preserve" font-family="InconsolataForPowerline" font-size="28.0" fill="#CBCBCB" transform="matrix(1.00, 0.00, -0.00, -1.00, 160.0, 73.0)">o</text><text xml:space="preserve" font-family="InconsolataForPowerline" font-size="28.0" fill="#CBCBCB" transform="matrix(1.00, 0.00, -0.00, -1.00, 174.0, 73.0)"> </text><text xml:space="preserve" font-family="InconsolataForPowerline" font-size="28.0" fill="#CBCBCB" transform="matrix(1.00, 0.00, -0.00, -1.00, 188.0, 73.0)">e</text><text xml:space="preserve" font-family="InconsolataForPowerline" font-size="28.0" fill="#CBCBCB" transform="matrix(1.00, 0.00, -0.00, -1.00, 202.0, 73.0)">a</text><text xml:space="preserve" font-family="InconsolataForPowerline" font-size="28.0" fill="#CBCBCB" transform="matrix(1.00, 0.00, -0.00, -1.00, 216.0, 73.0)">s</text><text xml:space="preserve" font-family="InconsolataForPowerline" font-size="28.0" fill="#CBCBCB" transform="matrix(1.00, 0.00, -0.00, -1.00, 230.0, 73.0)">y</text><text xml:space="preserve" font-family="InconsolataForPowerline" font-size="28.0" fill="#CBCBCB" transform="matrix(1.00, 0.00, -0.00, -1.00, 244.0, 73.0)"> </text><text xml:space="preserve" font-family="InconsolataForPowerline" font-size="28.0" fill="#CBCBCB" transform="matrix(1.00, 0.00, -0.00, -1.00, 258.0, 73.0)">t</text><text xml:space="preserve" font-family="InconsolataForPowerline" font-size="28.0" fill="#CBCBCB" transform="matrix(1.00, 0.00, -0.00, -1.00, 272.0, 73.0)">o</text><text xml:space="preserve" font-family="InconsolataForPowerline" font-size="28.0" fill="#CBCBCB" transform="matrix(1.00, 0.00, -0.00, -1.00, 286.0, 73.0)"> </text><text xml:space="preserve" font-family="InconsolataForPowerline" font-size="28.0" fill="#CBCBCB" transform="matrix(1.00, 0.00, -0.00, -1.00, 300.0, 73.0)">f</text><text xml:space="preserve" font-family="InconsolataForPowerline" font-size="28.0" fill="#CBCBCB" transform="matrix(1.00, 0.00, -0.00, -1.00, 314.0, 73.0)">o</text><text xml:space="preserve" font-family="InconsolataForPowerline" font-size="28.0" fill="#CBCBCB" transform="matrix(1.00, 0.00, -0.00, -1.00, 328.0, 73.0)">r</text><text xml:space="preserve" font-family="InconsolataForPowerline" font-size="28.0" fill="#CBCBCB" transform="matrix(1.00, 0.00, -0.00, -1.00, 342.0, 73.0)">g</text><text xml:space="preserve" font-family="InconsolataForPowerline" font-size="28.0" fill="#CBCBCB" transform="matrix(1.00, 0.00, -0.00, -1.00, 356.0, 73.0)">e</text><text xml:space="preserve" font-family="InconsolataForPowerline" font-size="28.0" fill="#CBCBCB" transform="matrix(1.00, 0.00, -0.00, -1.00, 370.0, 73.0)">t</text><text xml:space="preserve" font-family="InconsolataForPowerline" font-size="28.0" fill="#CBCBCB" transform="matrix(1.00, 0.00, -0.00, -1.00, 384.0, 73.0)"> </text><text xml:space="preserve" font-family="InconsolataForPowerline" font-size="28.0" fill="#CBCBCB" transform="matrix(1.00, 0.00, -0.00, -1.00, 398.0, 73.0)">t</text><text xml:space="preserve" font-family="InconsolataForPowerline" font-size="28.0" fill="#CBCBCB" transform="matrix(1.00, 0.00, -0.00, -1.00, 412.0, 73.0)">h</text><text xml:space="preserve" font-family="InconsolataForPowerline" font-size="28.0" fill="#CBCBCB" transform="matrix(1.00, 0.00, -0.00, -1.00, 426.0, 73.0)">i</text><text xml:space="preserve" font-family="InconsolataForPowerline" font-size="28.0" fill="#CBCBCB" transform="matrix(1.00, 0.00, -0.00, -1.00, 440.0, 73.0)">s</text><text xml:space="preserve" font-family="InconsolataForPowerline" font-size="28.0" fill="#000000" transform="matrix(1.00, 0.00, -0.00, -1.00, 454.0, 73.0)"> </text><text xml:space="preserve" font-family="InconsolataForPowerline" font-size="28.0" fill="#F3F3F3" transform="matrix(1.00, 0.00, -0.00, -1.00, 6.0, 42.0)">$</text><text xml:space="preserve" font-family="InconsolataForPowerline" font-size="28.0" fill="#F3F3F3" transform="matrix(1.00, 0.00, -0.00, -1.00, 20.0, 42.0)"> </text><text xml:space="preserve" font-family="InconsolataForPowerline" font-size="28.0" fill="#F3F3F3" transform="matrix(1.00, 0.00, -0.00, -1.00, 34.0, 42.0)">g</text><text xml:space="preserve" font-family="InconsolataForPowerline" font-size="28.0" fill="#F3F3F3" transform="matrix(1.00, 0.00, -0.00, -1.00, 48.0, 42.0)">i</text><text xml:space="preserve" font-family="InconsolataForPowerline" font-size="28.0" fill="#F3F3F3" transform="matrix(1.00, 0.00, -0.00, -1.00, 62.0, 42.0)">t</text><text xml:space="preserve" font-family="InconsolataForPowerline" font-size="28.0" fill="#F3F3F3" transform="matrix(1.00, 0.00, -0.00, -1.00, 76.0, 42.0)"> </text><text xml:space="preserve" font-family="InconsolataForPowerline" font-size="28.0" fill="#F3F3F3" transform="matrix(1.00, 0.00, -0.00, -1.00, 90.0, 42.0)">t</text><text xml:space="preserve" font-family="InconsolataForPowerline" font-size="28.0" fill="#F3F3F3" transform="matrix(1.00, 0.00, -0.00, -1.00, 104.0, 42.0)">a</text><text xml:space="preserve" font-family="InconsolataForPowerline" font-size="28.0" fill="#F3F3F3" transform="matrix(1.00, 0.00, -0.00, -1.00, 118.0, 42.0)">g</text><text xml:space="preserve" font-family="InconsolataForPowerline" font-size="28.0" fill="#000000" transform="matrix(1.00, 0.00, -0.00, -1.00, 132.0, 42.0)"> </text><text xml:space="preserve" font-family="InconsolataForPowerline" font-size="28.0" fill="#A1DCFF" transform="matrix(1.00, 0.00, -0.00, -1.00, 146.0, 42.0)">"</text><text xml:space="preserve" font-family="InconsolataForPowerline" font-size="28.0" fill="#A1DCFF" transform="matrix(1.00, 0.00, -0.00, -1.00, 160.0, 42.0)">v</text><text xml:space="preserve" font-family="InconsolataForPowerline" font-size="28.0" fill="#A1DCFF" transform="matrix(1.00, 0.00, -0.00, -1.00, 174.0, 42.0)">1</text><text xml:space="preserve" font-family="InconsolataForPowerline" font-size="28.0" fill="#A1DCFF" transform="matrix(1.00, 0.00, -0.00, -1.00, 188.0, 42.0)">.</text><text xml:space="preserve" font-family="InconsolataForPowerline" font-size="28.0" fill="#A1DCFF" transform="matrix(1.00, 0.00, -0.00, -1.00, 202.0, 42.0)">0</text><text xml:space="preserve" font-family="InconsolataForPowerline" font-size="28.0" fill="#A1DCFF" transform="matrix(1.00, 0.00, -0.00, -1.00, 216.0, 42.0)">.</text><text xml:space="preserve" font-family="InconsolataForPowerline" font-size="28.0" fill="#A1DCFF" transform="matrix(1.00, 0.00, -0.00, -1.00, 230.0, 42.0)">0</text><text xml:space="preserve" font-family="InconsolataForPowerline" font-size="28.0" fill="#A1DCFF" transform="matrix(1.00, 0.00, -0.00, -1.00, 244.0, 42.0)">"</text><text xml:space="preserve" font-family="InconsolataForPowerline" font-size="28.0" fill="#F3F3F3" transform="matrix(1.00, 0.00, -0.00, -1.00, 258.0, 42.0)"> </text><text xml:space="preserve" font-family="InconsolataForPowerline" font-size="28.0" fill="#F3F3F3" transform="matrix(1.00, 0.00, -0.00, -1.00, 6.0, 11.0)">$</text><text xml:space="preserve" font-family="InconsolataForPowerline" font-size="28.0" fill="#F3F3F3" transform="matrix(1.00, 0.00, -0.00, -1.00, 20.0, 11.0)"> </text><text xml:space="preserve" font-family="InconsolataForPowerline" font-size="28.0" fill="#F3F3F3" transform="matrix(1.00, 0.00, -0.00, -1.00, 34.0, 11.0)">g</text><text xml:space="preserve" font-family="InconsolataForPowerline" font-size="28.0" fill="#F3F3F3" transform="matrix(1.00, 0.00, -0.00, -1.00, 48.0, 11.0)">i</text><text xml:space="preserve" font-family="InconsolataForPowerline" font-size="28.0" fill="#F3F3F3" transform="matrix(1.00, 0.00, -0.00, -1.00, 62.0, 11.0)">t</text><text xml:space="preserve" font-family="InconsolataForPowerline" font-size="28.0" fill="#F3F3F3" transform="matrix(1.00, 0.00, -0.00, -1.00, 76.0, 11.0)"> </text><text xml:space="preserve" font-family="InconsolataForPowerline" font-size="28.0" fill="#F3F3F3" transform="matrix(1.00, 0.00, -0.00, -1.00, 90.0, 11.0)">p</text><text xml:space="preserve" font-family="InconsolataForPowerline" font-size="28.0" fill="#F3F3F3" transform="matrix(1.00, 0.00, -0.00, -1.00, 104.0, 11.0)">u</text><text xml:space="preserve" font-family="InconsolataForPowerline" font-size="28.0" fill="#F3F3F3" transform="matrix(1.00, 0.00, -0.00, -1.00, 118.0, 11.0)">s</text><text xml:space="preserve" font-family="InconsolataForPowerline" font-size="28.0" fill="#F3F3F3" transform="matrix(1.00, 0.00, -0.00, -1.00, 132.0, 11.0)">h</text><text xml:space="preserve" font-family="InconsolataForPowerline" font-size="28.0" fill="#000000" transform="matrix(1.00, 0.00, -0.00, -1.00, 146.0, 11.0)"> </text><text xml:space="preserve" font-family="InconsolataForPowerline" font-size="28.0" fill="#F3F3F3" transform="matrix(1.00, 0.00, -0.00, -1.00, 160.0, 11.0)">-</text><text xml:space="preserve" font-family="InconsolataForPowerline" font-size="28.0" fill="#F3F3F3" transform="matrix(1.00, 0.00, -0.00, -1.00, 174.0, 11.0)">-</text><text xml:space="preserve" font-family="InconsolataForPowerline" font-size="28.0" fill="#F3F3F3" transform="matrix(1.00, 0.00, -0.00, -1.00, 188.0, 11.0)">t</text><text xml:space="preserve" font-family="InconsolataForPowerline" font-size="28.0" fill="#F3F3F3" transform="matrix(1.00, 0.00, -0.00, -1.00, 202.0, 11.0)">a</text><text xml:space="preserve" font-family="InconsolataForPowerline" font-size="28.0" fill="#F3F3F3" transform="matrix(1.00, 0.00, -0.00, -1.00, 216.0, 11.0)">g</text></g></g></g></svg>